<?xml version="1.0" encoding="utf-8"?>
<!-- Generator: Adobe Illustrator 19.0.0, SVG Export Plug-In . SVG Version: 6.00 Build 0)  -->
<svg version="1.1" id="Layer_1" xmlns="http://www.w3.org/2000/svg" xmlns:xlink="http://www.w3.org/1999/xlink" x="0px" y="0px"
	 viewBox="0 0 1080 1920" style="enable-background:new 0 0 1080 1920;" xml:space="preserve">
<style type="text/css">
	.st0{fill:none;}
	.st1{fill:#937AB9;}
	.st2{fill:#FFBE4D;}
	.st3{fill:#BDEBE6;}
	.st4{fill:#FDBFBC;}
	.st5{fill:#3F3E3E;}
	.st6{fill:#F725A0;}
	.st7{fill:#0CB2C0;}
	.st8{fill:#672394;}
	.st9{clip-path:url(#XMLID_3_);fill:#FFBE4D;}
	.st10{fill:url(#New_Pattern_9);}
</style>
<pattern  width="1122" height="1122" patternUnits="userSpaceOnUse" id="New_Pattern_9" viewBox="63 -1301.7 1122 1122" style="overflow:visible;">
	<g id="XMLID_82_">
		<polygon id="XMLID_178_" class="st0" points="63,-1301.7 1185,-1301.7 1185,-179.7 63,-179.7 		"/>
		<g id="XMLID_176_">
			<polygon id="XMLID_177_" class="st1" points="1230.5,-139.8 1129.2,-180.4 1169.8,-281.7 1271.1,-241.2 			"/>
		</g>
		<g id="XMLID_170_">
			<g id="XMLID_174_">
				<polygon id="XMLID_175_" class="st1" points="1230.5,-139.8 1129.2,-180.4 1169.8,-281.7 1271.1,-241.2 				"/>
			</g>
			<polygon id="XMLID_173_" class="st2" points="1085.1,-343.9 1103.4,-179.7 1121.6,-15.5 970.2,-81.8 818.9,-148.1 952,-246 			
				"/>
			<path id="XMLID_172_" class="st3" d="M402.1-23.6L402.1-23.6C362.4,11.1,302.1,7,267.5-32.6l0,0c-34.7-39.7-30.6-99.9,9.1-134.6
				l0,0c39.7-34.7,99.9-30.6,134.6,9.1l0,0C445.8-118.5,441.7-58.2,402.1-23.6z"/>
			<polygon id="XMLID_171_" class="st1" points="108.5,-139.8 7.2,-180.4 47.8,-281.7 149.1,-241.2 			"/>
		</g>
		<g id="XMLID_167_">
			<g id="XMLID_168_">
				<polygon id="XMLID_169_" class="st1" points="108.5,-139.8 7.2,-180.4 47.8,-281.7 149.1,-241.2 				"/>
			</g>
		</g>
		<g id="XMLID_158_">
			<g id="XMLID_165_">
				<polygon id="XMLID_166_" class="st1" points="1230.5,-139.8 1129.2,-180.4 1169.8,-281.7 1271.1,-241.2 				"/>
			</g>
			<path id="XMLID_164_" class="st4" d="M1233.6-371.3L1233.6-371.3c-17.5,15.3-44,13.5-59.3-4v0c-15.3-17.5-13.5-44,4-59.3l0,0
				c17.5-15.3,44-13.5,59.3,4v0C1252.8-413.1,1251.1-386.6,1233.6-371.3z"/>
			<polygon id="XMLID_163_" class="st5" points="1230.5,-596 1122,-629.5 1128.4,-650.3 1236.9,-616.8 			"/>
			<polygon id="XMLID_162_" class="st1" points="1230.5,-1261.8 1129.2,-1302.4 1169.8,-1403.7 1271.1,-1363.2 			"/>
			<g id="XMLID_159_">
				<path id="XMLID_161_" class="st4" d="M1233.6-371.3L1233.6-371.3c-17.5,15.3-44,13.5-59.3-4v0c-15.3-17.5-13.5-44,4-59.3l0,0
					c17.5-15.3,44-13.5,59.3,4v0C1252.8-413.1,1251.1-386.6,1233.6-371.3z"/>
				<polygon id="XMLID_160_" class="st5" points="1230.5,-596 1122,-629.5 1128.4,-650.3 1236.9,-616.8 				"/>
			</g>
		</g>
		<g id="XMLID_105_">
			<polygon id="XMLID_156_" class="st1" points="1230.5,-139.8 1129.2,-180.4 1169.8,-281.7 1271.1,-241.2 			"/>
			<g id="XMLID_150_">
				<polygon id="XMLID_155_" class="st2" points="1085.1,-343.9 1103.4,-179.7 1121.6,-15.5 970.2,-81.8 818.9,-148.1 952,-246 				
					"/>
				<path id="XMLID_154_" class="st3" d="M402.1-23.6L402.1-23.6C362.4,11.1,302.1,7,267.5-32.6l0,0c-34.7-39.7-30.6-99.9,9.1-134.6
					l0,0c39.7-34.7,99.9-30.6,134.6,9.1l0,0C445.8-118.5,441.7-58.2,402.1-23.6z"/>
				<polygon id="XMLID_151_" class="st1" points="108.5,-139.8 7.2,-180.4 47.8,-281.7 149.1,-241.2 				"/>
			</g>
			<g id="XMLID_146_">
				<path id="XMLID_149_" class="st4" d="M1233.6-371.3L1233.6-371.3c-17.5,15.3-44,13.5-59.3-4v0c-15.3-17.5-13.5-44,4-59.3l0,0
					c17.5-15.3,44-13.5,59.3,4v0C1252.8-413.1,1251.1-386.6,1233.6-371.3z"/>
				<polygon id="XMLID_148_" class="st5" points="1230.5,-596 1122,-629.5 1128.4,-650.3 1236.9,-616.8 				"/>
				<polygon id="XMLID_147_" class="st1" points="1230.5,-1261.8 1129.2,-1302.4 1169.8,-1403.7 1271.1,-1363.2 				"/>
			</g>
			<path id="XMLID_145_" class="st3" d="M755.6-402.9c-6,0-11.2-4.5-11.9-10.7c-3.6-32.1,6.1-59.9,26.7-76.2
				c20.6-16.3,49.8-19.3,80.2-8.4c22.8,8.2,43.1,6.5,57.3-4.6c14.1-11.2,20.4-30.6,17.7-54.6c-0.7-6.6,4-12.5,10.6-13.3
				c6.6-0.7,12.5,4,13.3,10.6c3.6,32.1-6.1,59.9-26.7,76.2c-20.6,16.3-49.8,19.3-80.2,8.4c-22.8-8.2-43.1-6.5-57.3,4.6
				c-14.1,11.2-20.4,30.6-17.7,54.6c0.7,6.6-4,12.5-10.6,13.3C756.5-403,756.1-402.9,755.6-402.9z"/>
			<path id="XMLID_142_" class="st2" d="M371.6-843.5c27.4,5.6,56.6-5.5,80-30.3c3.1-3.3,4.8-7.6,4.6-12.2c-0.1-4.5-2-8.8-5.3-11.9
				c-3.3-3.1-7.6-4.8-12.2-4.6c-4.5,0.1-8.8,2-11.9,5.3c-15.4,16.3-32.6,23.5-48.5,20.3c-15.9-3.2-29-16.6-36.8-37.6
				c-11.9-31.9-34.5-53.5-61.9-59c-27.4-5.6-56.6,5.5-80,30.3c-6,6.3-6.2,16-0.6,22.6c0.4,0.5,0.9,1,1.3,1.4
				c6.8,6.4,17.6,6.1,24-0.7c15.4-16.3,32.6-23.5,48.5-20.3c15.9,3.2,29,16.6,36.8,37.6c10.3,27.6,28.5,47.4,51,55.8
				C364.2-845.3,367.9-844.3,371.6-843.5z M274.9-949.9c-19.4-3.9-39.9,4.3-57.8,23.2c-2.7,2.8-7.1,2.9-9.9,0.3
				c-0.2-0.2-0.4-0.4-0.6-0.6l0,0c-2.3-2.7-2.2-6.7,0.3-9.3c21-22.2,46.8-32.2,70.7-27.3c24,4.9,43.8,24.1,54.5,52.7
				c9.1,24.4,24.8,39.9,44.2,43.9c19.4,3.9,39.9-4.3,57.8-23.2c1.3-1.4,3-2.1,4.9-2.2c1.9-0.1,3.6,0.6,5,1.9c1.4,1.3,2.1,3,2.2,4.9
				c0.1,1.9-0.6,3.6-1.9,5c-21,22.2-46.8,32.2-70.7,27.3c-24-4.9-43.8-24.1-54.5-52.7c-7.9-21.2-20.8-35.7-36.8-41.7
				C279.9-948.7,277.4-949.4,274.9-949.9z"/>
			<polygon id="XMLID_141_" class="st5" points="524.1,-774.6 535.3,-760.5 724.4,-909.6 713.2,-923.8 			"/>
			<polygon id="XMLID_140_" class="st5" points="499.4,-302.1 507.2,-321.6 643.4,-267 635.6,-247.6 			"/>
			<path id="XMLID_137_" class="st6" d="M501.4-529.7L264.3-791.2L156.4-455.1L501.4-529.7z M471.8-539.2L179.4-476l91.4-284.8
				L471.8-539.2z"/>
			<polygon id="XMLID_136_" class="st2" points="1085.1,-1465.9 1103.4,-1301.7 1121.6,-1137.5 970.2,-1203.8 818.9,-1270.1 
				952,-1368 			"/>
			<polygon id="XMLID_135_" class="st7" points="1085.1,-343.9 1103.4,-179.7 1121.6,-15.5 970.2,-81.8 818.9,-148.1 952,-246 			
				"/>
			<path id="XMLID_134_" class="st3" d="M402.1-1145.6L402.1-1145.6c-39.7,34.7-99.9,30.6-134.6-9.1l0,0
				c-34.7-39.7-30.6-99.9,9.1-134.6h0c39.7-34.7,99.9-30.6,134.6,9.1l0,0C445.8-1240.5,441.7-1180.2,402.1-1145.6z"/>
			<path id="XMLID_132_" class="st2" d="M678.5-640.4L678.5-640.4c-6.9,6-17.4,5.3-23.5-1.6l0,0c-6-6.9-5.3-17.4,1.6-23.5l0,0
				c6.9-6,17.4-5.3,23.5,1.6v0C686.2-656.9,685.5-646.4,678.5-640.4z"/>
			<path id="XMLID_131_" class="st4" d="M685.6-1175.1L685.6-1175.1c-11.4,9.9-28.6,8.8-38.6-2.6l0,0c-9.9-11.4-8.8-28.6,2.6-38.6h0
				c11.4-9.9,28.6-8.8,38.6,2.6v0C698.1-1202.3,697-1185,685.6-1175.1z"/>
			<path id="XMLID_128_" class="st4" d="M111.6-371.3L111.6-371.3c-17.5,15.3-44,13.5-59.3-4l0,0c-15.3-17.5-13.5-44,4-59.3l0,0
				c17.5-15.3,44-13.5,59.3,4v0C130.8-413.1,129.1-386.6,111.6-371.3z"/>
			<path id="XMLID_127_" class="st4" d="M1233.6-371.3L1233.6-371.3c-17.5,15.3-44,13.5-59.3-4v0c-15.3-17.5-13.5-44,4-59.3l0,0
				c17.5-15.3,44-13.5,59.3,4v0C1252.8-413.1,1251.1-386.6,1233.6-371.3z"/>
			<polygon id="XMLID_126_" class="st5" points="1230.5,-596 1122,-629.5 1128.4,-650.3 1236.9,-616.8 			"/>
			<polygon id="XMLID_122_" class="st5" points="108.5,-596 0,-629.5 6.4,-650.3 114.9,-616.8 			"/>
			<polygon id="XMLID_121_" class="st1" points="108.5,-1261.8 7.2,-1302.4 47.8,-1403.7 149.1,-1363.2 			"/>
			<path id="XMLID_116_" class="st8" d="M1142.5-949.8l-209.1-65.5L868-806.2l209.1,65.5L1142.5-949.8z M944.4-994.4l177.2,55.5
				l-55.5,177.2l-177.2-55.5L944.4-994.4z"/>
			<g id="XMLID_109_">
				<path id="XMLID_115_" class="st4" d="M111.6-371.3L111.6-371.3c-17.5,15.3-44,13.5-59.3-4l0,0c-15.3-17.5-13.5-44,4-59.3l0,0
					c17.5-15.3,44-13.5,59.3,4v0C130.8-413.1,129.1-386.6,111.6-371.3z"/>
				<polygon id="XMLID_114_" class="st5" points="108.5,-596 0,-629.5 6.4,-650.3 114.9,-616.8 				"/>
			</g>
			<g id="XMLID_106_">
				<defs>
					<rect id="XMLID_107_" x="63" y="-1301.7" width="1122" height="1122"/>
				</defs>
				<clipPath id="XMLID_3_">
					<use xlink:href="#XMLID_107_"  style="overflow:visible;"/>
				</clipPath>
				<polygon id="XMLID_108_" class="st9" points="1085.1,-1465.9 1103.4,-1301.7 1121.6,-1137.5 970.2,-1203.8 818.9,-1270.1 
					952,-1368 				"/>
			</g>
		</g>
		<g id="XMLID_97_">
			<polygon id="XMLID_104_" class="st1" points="108.5,-139.8 7.2,-180.4 47.8,-281.7 149.1,-241.2 			"/>
			<g id="XMLID_100_">
				<path id="XMLID_103_" class="st4" d="M111.6-371.3L111.6-371.3c-17.5,15.3-44,13.5-59.3-4l0,0c-15.3-17.5-13.5-44,4-59.3l0,0
					c17.5-15.3,44-13.5,59.3,4v0C130.8-413.1,129.1-386.6,111.6-371.3z"/>
				<polygon id="XMLID_102_" class="st5" points="108.5,-596 0,-629.5 6.4,-650.3 114.9,-616.8 				"/>
				<polygon id="XMLID_101_" class="st1" points="108.5,-1261.8 7.2,-1302.4 47.8,-1403.7 149.1,-1363.2 				"/>
			</g>
			<path id="XMLID_99_" class="st4" d="M111.6-371.3L111.6-371.3c-17.5,15.3-44,13.5-59.3-4l0,0c-15.3-17.5-13.5-44,4-59.3l0,0
				c17.5-15.3,44-13.5,59.3,4v0C130.8-413.1,129.1-386.6,111.6-371.3z"/>
			<polygon id="XMLID_98_" class="st5" points="108.5,-596 0,-629.5 6.4,-650.3 114.9,-616.8 			"/>
		</g>
		<g id="XMLID_92_">
			<g id="XMLID_95_">
				<polygon id="XMLID_96_" class="st1" points="1230.5,-1261.8 1129.2,-1302.4 1169.8,-1403.7 1271.1,-1363.2 				"/>
			</g>
		</g>
		<g id="XMLID_85_">
			<polygon id="XMLID_91_" class="st1" points="1230.5,-1261.8 1129.2,-1302.4 1169.8,-1403.7 1271.1,-1363.2 			"/>
			<g id="XMLID_87_">
				<polygon id="XMLID_90_" class="st2" points="1085.1,-1465.9 1103.4,-1301.7 1121.6,-1137.5 970.2,-1203.8 818.9,-1270.1 
					952,-1368 				"/>
				<path id="XMLID_89_" class="st3" d="M402.1-1145.6L402.1-1145.6c-39.7,34.7-99.9,30.6-134.6-9.1l0,0
					c-34.7-39.7-30.6-99.9,9.1-134.6h0c39.7-34.7,99.9-30.6,134.6,9.1l0,0C445.8-1240.5,441.7-1180.2,402.1-1145.6z"/>
				<polygon id="XMLID_88_" class="st1" points="108.5,-1261.8 7.2,-1302.4 47.8,-1403.7 149.1,-1363.2 				"/>
			</g>
			<polygon id="XMLID_86_" class="st7" points="1085.1,-1465.9 1103.4,-1301.7 1121.6,-1137.5 970.2,-1203.8 818.9,-1270.1 
				952,-1368 			"/>
		</g>
		<g id="XMLID_83_">
			<polygon id="XMLID_84_" class="st1" points="108.5,-1261.8 7.2,-1302.4 47.8,-1403.7 149.1,-1363.2 			"/>
		</g>
	</g>
</pattern>
<rect id="XMLID_2_" x="0" class="st10" width="1080" height="1920"/>
</svg>
